<?xml version="1.0" encoding="UTF-8" standalone="no"?><!-- Generator: Gravit.io --><svg xmlns="http://www.w3.org/2000/svg" xmlns:xlink="http://www.w3.org/1999/xlink" style="isolation:isolate" viewBox="0 0 384 512" width="384pt" height="512pt"><defs><clipPath id="_clipPath_lFdhmcsqkrBFrUvXzKotEnAR4iegi9em"><rect width="384" height="512"/></clipPath></defs><mask id="_mask_Zcxw1r1xniBP85Gyo8GKLaEIxZFPs1oC" x="-200%" y="-200%" width="400%" height="400%"><rect x="-200%" y="-200%" width="400%" height="400%" style="fill:white;"/><path d=" M 214.105 308 L 214.105 249.5 C 214.105 237.634 204.472 228 192.605 228 L 192.605 228 C 180.739 228 171.105 237.634 171.105 249.5 L 171.105 308 L 112.605 308 C 100.739 308 91.105 317.634 91.105 329.5 L 91.105 329.5 C 91.105 341.366 100.739 351 112.605 351 L 171.105 351 L 171.105 409.5 C 171.105 421.366 180.739 431 192.605 431 L 192.605 431 C 204.472 431 214.105 421.366 214.105 409.5 L 214.105 351 L 272.605 351 C 284.472 351 294.105 341.366 294.105 329.5 L 294.105 329.5 C 294.105 317.634 284.472 308 272.605 308 L 214.105 308 Z " fill-rule="evenodd" fill="black" stroke="none"/></mask><g clip-path="url(#_clipPath_lFdhmcsqkrBFrUvXzKotEnAR4iegi9em)" mask="url(#_mask_Zcxw1r1xniBP85Gyo8GKLaEIxZFPs1oC)"><path d=" M 0 64 C 0 28.65 28.65 0 64 0 L 224 0 L 224 128 C 224 145.7 238.3 160 256 160 L 384 160 L 384 448 C 384 483.3 355.3 512 320 512 L 64 512 C 28.65 512 0 483.3 0 448 L 0 64 Z  M 256 128 L 256 0 L 384 128 L 256 128 Z " fill="rgb(0,0,0)"/></g></svg>